<svg width="24" height="24" viewBox="0 0 24 24" fill="none" xmlns="http://www.w3.org/2000/svg">
<path fill-rule="evenodd" clip-rule="evenodd" d="M12.1036 0.636475L14.4676 2.99993H20.5C22.1569 2.99993 23.5 4.34307 23.5 5.99993V20.9999C23.5 22.6568 22.1569 23.9999 20.5 23.9999H3C1.34315 23.9999 0 22.6568 0 20.9999V5.99993C0 4.34307 1.34315 2.99993 3 2.99993H9.03L11.3962 0.636315C11.5918 0.441489 11.9082 0.44156 12.1036 0.636475ZM11.7495 2.40357L9.94366 4.20743C9.75615 4.39472 9.50197 4.49993 9.23694 4.49993H3C2.17157 4.49993 1.5 5.1715 1.5 5.99993V20.9999C1.5 21.8284 2.17157 22.4999 3 22.4999H4C4 19.7385 6.23858 17.4999 9 17.4999H14.5C17.2614 17.4999 19.5 19.7385 19.5 22.4999H20.5C21.3284 22.4999 22 21.8284 22 20.9999V5.99993C22 5.1715 21.3284 4.49993 20.5 4.49993H14.2605C13.9953 4.49993 13.741 4.3946 13.5534 4.20711L11.7495 2.40357ZM14.5 18.9999C16.433 18.9999 18 20.5669 18 22.4999H5.5C5.5 20.5669 7.067 18.9999 9 18.9999H14.5ZM11.75 6.49993C14.3734 6.49993 16.5 8.62658 16.5 11.2499C16.5 13.8733 14.3734 15.9999 11.75 15.9999C9.12665 15.9999 7 13.8733 7 11.2499C7 8.62658 9.12665 6.49993 11.75 6.49993ZM8.5 11.2499C8.5 9.455 9.95507 7.99993 11.75 7.99993C13.5449 7.99993 15 9.455 15 11.2499C15 13.0449 13.5449 14.4999 11.75 14.4999C9.95507 14.4999 8.5 13.0449 8.5 11.2499Z" fill="black" fill-opacity="0.4"/>
</svg>
